<svg xmlns="http://www.w3.org/2000/svg" width="1685.57" height="380.16" viewBox="0 0 1685.57 380.16">
  <defs>
    <style>
      .f4c8658c-a168-4ae1-acf4-41e481ea908e {
        fill: #0094ff;
      }

      .e0c999c2-83aa-4747-802c-445b3d0f5536 {
        fill: #fff;
      }
    </style>
  </defs>
  <title>Recurso 5</title>
  <g id="e393d743-7a0a-407a-af73-5a957df536c7" data-name="Capa 2">
    <g id="a5f0cc88-7124-41c7-8239-2c4c34ece853" data-name="Pantalla mision">
      <g>
        <polygon class="f4c8658c-a168-4ae1-acf4-41e481ea908e" points="1685.57 26.433 1685.57 354.893 1661.683 354.89 1661.683 371.74 1627.31 371.74 1627.31 380.16 217.926 380.16 217.926 371.74 183.553 371.74 183.553 354.89 149.18 354.89 149.18 26.43 183.553 26.43 183.553 9.58 217.926 9.58 217.926 1.16 1627.31 1.16 1627.31 9.58 1661.683 9.58 1661.683 26.43 1685.57 26.433"/>
        <path class="e0c999c2-83aa-4747-802c-445b3d0f5536" d="M1663.32,63.38V291.73a63.385,63.385,0,0,1-63.38,63.38H168.23a63.385,63.385,0,0,1-63.38-63.38v-7.17a148.451,148.451,0,0,1-53.12,9.03C31.52,293.25,0,279.61,0,279.61a286.579,286.579,0,0,0,61.52-34.95c21.1-15.92,34.54-36.28,43.33-55.18V63.38A63.385,63.385,0,0,1,168.23,0H1599.94A63.385,63.385,0,0,1,1663.32,63.38Z"/>
      </g>
    </g>
  </g>
</svg>
